<svg xmlns="http://www.w3.org/2000/svg" width="691" height="489" viewBox="0 0 691 489" fill="none"><path d="M506.617 125.259C506.617 130.296 502.537 134.372 497.495 134.372H137.825C132.783 134.372 128.703 130.296 128.703 125.259V88.8217C128.703 83.7845 132.783 79.7092 137.825 79.7092H497.495C502.537 79.7092 506.617 83.7845 506.617 88.8217V125.259Z" fill="white"></path><path d="M497.495 79.7092H438.787V134.372H497.495C502.537 134.372 506.617 130.296 506.617 125.259V88.8217C506.617 83.7845 502.537 79.7092 497.495 79.7092Z" fill="#4B6590"></path><path d="M462.96 85.531C452.47 88.8976 446.693 100.124 450.063 110.603C453.433 121.082 464.67 126.854 475.16 123.487C485.65 120.121 491.427 108.894 488.057 98.4151C484.687 87.9357 473.45 82.1644 462.96 85.531ZM484.902 99.4149C487.715 108.16 482.901 117.526 474.146 120.336C465.392 123.145 456.017 118.336 453.205 109.591C450.392 100.845 455.206 91.4794 463.961 88.6698C472.715 85.8601 482.09 90.6695 484.902 99.4149Z" fill="white"></path><path d="M496.444 124.234C497.254 124.892 497.381 126.082 496.722 126.892C496.064 127.702 494.873 127.828 494.062 127.17L483.116 118.349C482.305 117.691 482.179 116.501 482.837 115.691C483.496 114.881 484.687 114.754 485.498 115.412L496.444 124.234Z" fill="white"></path><path d="M367.043 152.242L358.479 117.476L391.127 132.587L383.754 139.409L391.684 149.18L383.754 155.634L376 145.674L367.043 152.242Z" fill="#7A8DB5"></path><path d="M367.043 152.242L358.479 117.476L387.77 152.369L383.754 155.634L376 145.674L367.043 152.242Z" fill="#4B6590"></path><path d="M267.947 345.516C267.947 345.516 251.706 308.648 271.735 263.263C271.735 263.263 272.977 276.881 270.811 320.608C270.811 320.608 269.354 301.548 289.332 269.11C289.332 269.11 285.785 300.27 273.484 335.973C273.484 335.973 280.578 307.357 293.589 297.574C293.589 297.587 292.246 327.924 267.947 345.516Z" fill="#14C3BF"></path><path d="M227.343 235.09C235.249 234.002 245.359 232.255 252.327 237.28C256.191 240.077 258.154 244.772 258.94 249.341C259.852 254.631 258.496 259.884 257.99 265.136C257.457 270.604 258.319 275.983 261.347 280.653C263.716 284.298 267.048 286.854 271.026 288.525C275.004 290.196 279.273 291.145 283.023 293.334C287.293 295.828 290.549 299.726 292.348 304.32C296.224 314.192 294.514 325.633 292.512 335.733C292.335 336.631 293.703 337.011 293.881 336.113C295.718 326.823 297.149 316.888 294.843 307.56C293.716 302.978 291.55 298.789 288.142 295.486C284.81 292.246 280.692 290.461 276.359 288.981C272.039 287.5 267.732 285.981 264.552 282.539C260.27 277.906 258.813 271.768 259.345 265.617C259.814 260.226 261.207 254.91 260.371 249.468C259.675 244.949 257.838 240.241 254.366 237.14C247.094 230.635 235.73 232.508 226.938 233.723C226.064 233.85 226.457 235.217 227.343 235.09Z" fill="#4B6590"></path><path d="M229.345 233.977C229.345 233.977 230.346 249 210.76 243.038C210.773 243.038 217.246 227.585 229.345 233.977Z" fill="#4B6590"></path><path d="M273.256 289.272C273.256 289.272 284.582 299.207 266.49 308.788C266.503 308.788 260.169 293.284 273.256 289.272Z" fill="#4B6590"></path><path d="M262.449 282.222C262.449 282.222 263.45 297.245 243.864 291.284C243.864 291.271 250.338 275.831 262.449 282.222Z" fill="#4B6590"></path><path d="M266.896 284.665C266.896 284.665 260.929 270.831 281.389 269.933C281.389 269.933 280.452 286.652 266.896 284.665Z" fill="#4B6590"></path><path d="M258.408 270.604C258.408 270.604 250.819 283.614 237.935 267.731C237.935 267.731 251.959 258.542 258.408 270.604Z" fill="#4B6590"></path><path d="M259.852 260.517C259.852 260.517 266.756 247.139 280.452 262.352C280.439 262.352 266.909 272.236 259.852 260.517Z" fill="#4B6590"></path><path d="M259.345 246.114C259.345 246.114 261.993 231.293 279.565 241.785C279.565 241.785 269.556 255.226 259.345 246.114Z" fill="#4B6590"></path><path d="M259.32 252.151C259.32 252.151 255.532 266.731 238.821 254.897C238.821 254.885 249.843 242.266 259.32 252.151Z" fill="#4B6590"></path><path d="M254.1 237.191C254.1 237.191 246.828 224.003 267.099 221.13C267.099 221.13 267.77 237.862 254.1 237.191Z" fill="#4B6590"></path><path d="M244.814 234.445C244.814 234.445 254.392 246.063 235.008 252.632C235.008 252.632 231.246 236.305 244.814 234.445Z" fill="#4B6590"></path><path d="M240.316 232.989C240.316 232.989 225.24 232.825 232.715 213.777C232.715 213.777 247.626 221.421 240.316 232.989Z" fill="#4B6590"></path><path d="M283.986 459.637C283.986 459.637 229.763 412.835 166.571 413.581C166.571 413.581 181.913 421.846 234.248 441.159C234.248 441.159 212.635 429.921 164.645 437.084C164.645 437.084 202.931 448.5 250.92 451.955C250.92 451.955 213.838 445.969 195.874 456.284C195.861 456.284 251.224 479.267 283.986 459.637Z" fill="#14C3BF"></path><path d="M267.732 348.579C267.732 348.579 272.115 308.534 239.354 271.274C239.354 271.274 242.267 284.639 257.495 325.696C257.495 325.696 253.15 307.079 224.328 282.146C224.328 282.146 237.099 310.787 259.573 341.15C259.573 341.15 244.193 316.002 228.838 310.572C228.851 310.559 239.252 339.099 267.732 348.579Z" fill="#14C3BF"></path><path d="M397.626 242.798C397.626 242.798 425.27 213.473 421.596 164.025C421.596 164.025 415.857 176.441 403.264 218.384C403.264 218.384 411.017 200.906 403.049 163.671C403.049 163.671 395.967 194.223 395.599 231.977C395.599 231.977 398.488 202.64 389.505 189.072C389.518 189.059 380.625 218.093 397.626 242.798Z" fill="#14C3BF"></path><path d="M453.534 306.016C453.534 306.016 449.86 266.49 480.532 228.23C480.532 228.23 477.706 241.595 463.213 282.918C463.213 282.918 467.419 264.275 494.328 238.406C494.328 238.406 482.242 267.326 461.148 298.321C461.148 298.321 475.629 272.768 489.894 266.769C489.881 266.756 479.974 295.473 453.534 306.016Z" fill="#14C3BF"></path><path d="M412.93 458.423C412.93 458.423 421.9 406.988 478.492 377.005C478.492 377.005 469.763 392.053 434.733 435.198C434.733 435.198 461.325 404.203 508.226 387.497C508.226 387.497 466.925 426.744 426.334 453.221C426.334 453.221 455.726 429.718 477.833 430.478C477.82 430.478 453.711 460.561 412.93 458.423Z" fill="#14C3BF"></path><path d="M148.492 384.307C153.344 390.762 158.691 397.47 165.963 401.317C172.855 404.95 180.785 405.431 188.425 405.241C192.871 405.14 197.103 404.849 201.36 406.456C204.768 407.734 207.694 409.987 210.316 412.455C215.764 417.606 220.376 423.694 227.166 427.212C232.348 429.895 238.353 431.022 244.168 430.693C251.047 430.313 257.622 428.048 263.995 425.592C265.312 425.086 264.742 422.947 263.399 423.453C252.618 427.617 240.785 430.958 229.637 425.959C222.757 422.871 218.095 416.999 212.85 411.835C207.58 406.646 201.474 402.975 193.885 402.862C189.362 402.786 184.865 403.216 180.329 402.874C176.795 402.608 173.285 401.988 169.966 400.723C161.579 397.521 155.625 390.142 150.393 383.194C149.556 382.067 147.631 383.168 148.492 384.307Z" fill="#4B6590"></path><path d="M153.547 388.484C153.547 388.484 137.8 391.56 141.486 370.107C141.474 370.107 158.678 374.853 153.547 388.484Z" fill="#4B6590"></path><path d="M213.471 412.455C213.471 412.455 198.775 406.026 214.028 390.484C214.041 390.484 225.469 404.178 213.471 412.455Z" fill="#4B6590"></path><path d="M230.004 427.946C230.004 427.946 242.306 438.223 223.315 448.892C223.315 448.88 216.182 432.541 230.004 427.946Z" fill="#4B6590"></path><path d="M218.855 420.732C218.855 420.732 222.225 436.401 200.688 433.123C200.688 433.123 205.122 415.859 218.855 420.732Z" fill="#4B6590"></path><path d="M202.335 406.329C202.335 406.329 209.24 420.795 187.525 422.58C187.525 422.58 187.842 404.76 202.335 406.329Z" fill="#4B6590"></path><path d="M187.512 403.431C187.512 403.431 173.919 398.331 186.955 383.548C186.955 383.548 197.952 395.369 187.512 403.431Z" fill="#4B6590"></path><path d="M173.83 404.229C173.83 404.229 187.55 412.531 170.397 425.934C170.384 425.947 160.857 410.873 173.83 404.229Z" fill="#4B6590"></path><path d="M157.55 394.635C157.55 394.635 156.968 410.645 136.888 402.191C136.888 402.191 145.439 386.548 157.55 394.635Z" fill="#4B6590"></path><path d="M167.47 399.824C167.47 399.824 154.953 389.8 173.716 378.751C173.716 378.751 181.191 394.939 167.47 399.824Z" fill="#4B6590"></path><path d="M296.022 452.487C296.022 452.487 310.186 388.028 277.132 382.523C237.175 375.866 264.679 339.416 232.285 333.784C199.89 328.152 219.464 288.398 195.507 277.147C171.563 265.883 172.969 300.371 188.463 320.773C203.957 341.175 166.622 355.957 209.595 382.7C252.555 409.443 194.797 429.136 267.352 453.765C339.907 478.394 296.022 452.487 296.022 452.487Z" fill="#14C3BF"></path><path opacity="0.2" d="M297.846 463.004C296.997 461.878 296.136 460.726 295.223 459.562C229.218 374.005 183.623 275.907 183.496 275.628C172.804 280.02 176.288 304.738 188.463 320.773C203.957 341.175 166.621 355.957 209.594 382.7C252.555 409.443 194.797 429.136 267.352 453.765C281.617 458.612 291.372 461.485 297.846 463.004Z" fill="#C1EEE6"></path><path d="M301.697 455.98C301.697 455.98 355.578 417.796 334.826 391.522C309.742 359.754 354.628 351.262 334.446 325.317C314.252 299.384 355.502 283.108 345.367 258.694C335.219 234.268 313.049 260.732 310.781 286.247C308.513 311.762 270.937 297.612 284.734 346.275C298.53 394.926 242.521 370.702 279.628 437.679C316.735 504.656 301.697 455.98 301.697 455.98Z" fill="#14C3BF"></path><path opacity="0.2" d="M295.971 465.003C296.11 463.598 296.237 462.168 296.351 460.687C305.105 353.02 337.398 249.796 337.5 249.505C326.63 245.581 312.567 266.198 310.781 286.246C308.513 311.761 270.937 297.611 284.734 346.275C298.53 394.925 242.521 370.701 279.628 437.678C286.925 450.841 292.196 459.523 295.971 465.003Z" fill="#C1EEE6"></path><path d="M367.196 357.717C367.196 357.717 353.729 296.422 385.147 291.195C423.141 284.867 396.98 250.202 427.791 244.848C458.602 239.495 439.991 201.69 462.757 190.996C485.523 180.289 484.193 213.081 469.459 232.483C454.725 251.885 490.223 265.933 449.366 291.36C408.509 316.786 463.429 335.518 394.446 358.944C325.464 382.346 367.196 357.717 367.196 357.717Z" fill="#14C3BF"></path><path opacity="0.2" d="M365.46 367.715C366.271 366.639 367.081 365.551 367.943 364.437C430.705 283.083 474.058 189.806 474.184 189.54C484.345 193.717 481.038 217.22 469.459 232.47C454.725 251.872 490.223 265.921 449.366 291.347C408.509 316.774 463.428 335.505 394.446 358.932C380.891 363.539 371.617 366.272 365.46 367.715Z" fill="#C1EEE6"></path><path opacity="0.1" d="M461.921 487.165C588.438 487.165 691 481.663 691 474.875C691 468.088 588.438 462.586 461.921 462.586C335.404 462.586 232.842 468.088 232.842 474.875C232.842 481.663 335.404 487.165 461.921 487.165Z" fill="#2F3F5C"></path><path d="M452.267 463.713C452.267 463.713 386.186 486.81 462.63 473.142L464.556 459.523L452.267 463.713Z" fill="#2F3F5C"></path><path d="M629.062 458.941C629.062 458.941 692.394 505.01 639.007 448.664L626.553 454.524L629.062 458.941Z" fill="#2F3F5C"></path><path d="M576.6 293.22C576.6 293.22 599.721 325.291 588.395 360.843C577.069 396.394 552.909 422.453 548.019 433.705C548.019 433.705 563.462 426.934 583.859 431.528C604.256 436.122 631.798 450.094 631.798 450.094L632.685 465.117C632.685 465.117 520.983 475.622 506.338 469.484C491.693 463.346 517.183 358.716 517.183 358.716C517.183 358.716 481.19 361.058 460.844 354.755C460.844 354.755 471.245 369.31 473.209 398.988C475.173 428.667 464.442 463.675 464.442 463.675L447.896 463.751C447.896 463.751 419.733 356.375 425.726 327.493C431.718 298.612 515.371 304.522 515.371 304.522L524.873 285.437L576.6 293.22Z" fill="#4B6590"></path><path opacity="0.5" d="M539.214 301.877C551.503 303.092 568.074 304.712 579.83 298.523C578.614 296.498 576.042 292.777 576.042 292.777L524.86 285.462L518.488 298.27C525.278 299.953 532.183 301.181 539.214 301.877Z" fill="#2F3F5C"></path><path opacity="0.5" d="M517.17 358.729C517.17 358.729 517.107 359.083 517.005 359.729C517.246 359.438 517.537 359.197 517.867 358.995C506.414 343.934 503.652 322.393 499.586 304.067C475.033 303.953 430.059 306.636 425.726 327.531C419.733 356.413 447.896 463.789 447.896 463.789L464.442 463.713C464.442 463.713 475.185 428.705 473.209 399.027C471.245 369.348 460.844 354.793 460.844 354.793C481.178 361.083 517.17 358.729 517.17 358.729Z" fill="#2F3F5C"></path><path d="M577.259 134.878C577.259 134.878 550.464 123.917 539.822 144.37C529.18 164.822 536.503 178.276 515.548 191.274C494.594 204.272 494.847 231.913 515.789 245.696C536.731 259.478 574.763 238.76 574.763 238.76L577.259 134.878Z" fill="#D7611C"></path><path d="M578.576 136.687C578.576 136.687 577.993 136.422 576.891 135.991C575.776 135.574 574.129 134.991 571.976 134.435C569.835 133.878 567.174 133.333 564.108 133.118C561.042 132.928 557.52 133.017 553.91 134.055C550.299 135.067 546.625 137.13 543.825 140.383C542.406 142.016 541.203 143.788 540.151 145.863C539.011 147.876 538.048 149.951 537.123 152.128C535.286 156.482 533.982 161.203 532.575 166.012C531.207 170.809 529.37 175.745 526.203 179.883C523.061 184.034 518.766 187.148 514.357 189.54C509.999 191.983 506.186 194.969 503.285 198.678C500.384 202.348 498.395 206.55 497.533 210.764C496.634 214.966 496.697 219.105 497.343 222.813C497.571 223.725 497.799 224.623 498.027 225.496C498.141 225.927 498.243 226.37 498.382 226.787C498.547 227.192 498.699 227.597 498.863 228.002C499.18 228.8 499.484 229.584 499.776 230.344C500.168 231.065 500.536 231.761 500.903 232.432C501.296 233.09 501.575 233.799 502.018 234.368C502.436 234.951 502.841 235.52 503.222 236.064C503.614 236.596 503.956 237.153 504.362 237.608C504.78 238.064 505.173 238.494 505.54 238.899C506.313 239.697 506.908 240.494 507.58 241.038C508.226 241.608 508.783 242.089 509.239 242.468C510.139 243.253 510.62 243.658 510.62 243.658C510.62 243.658 510.126 243.253 509.201 242.506C508.745 242.127 508.175 241.658 507.504 241.114C506.807 240.595 506.186 239.811 505.388 239.026C504.995 238.621 504.59 238.203 504.159 237.76C503.741 237.305 503.386 236.76 502.968 236.242C502.563 235.71 502.145 235.14 501.701 234.571C501.233 234.001 500.928 233.305 500.523 232.647C500.13 231.976 499.738 231.28 499.32 230.559C498.99 229.8 498.661 229.015 498.319 228.205C498.154 227.8 497.977 227.395 497.799 226.977C497.647 226.56 497.546 226.104 497.419 225.674C497.178 224.788 496.912 223.876 496.672 222.952C495.95 219.168 495.81 214.941 496.659 210.587C497.47 206.234 499.446 201.842 502.449 198.045C503.108 197.02 504.02 196.197 504.856 195.299C505.287 194.856 505.692 194.4 506.135 193.97L507.592 192.793C509.493 191.084 511.634 189.945 513.8 188.578C518.133 186.199 522.25 183.161 525.24 179.174C528.293 175.226 530.105 170.48 531.498 165.708C532.93 160.937 534.273 156.153 536.161 151.748C537.111 149.546 538.124 147.369 539.29 145.42C540.341 143.408 541.697 141.459 543.167 139.839C546.131 136.498 550.008 134.422 553.732 133.447C557.47 132.422 561.068 132.448 564.159 132.739C567.263 133.055 569.911 133.675 572.039 134.295C574.18 134.916 575.814 135.548 576.916 136.004C578.019 136.409 578.576 136.687 578.576 136.687Z" fill="#D7611C"></path><path d="M556.545 202.07C556.545 202.07 556.925 217.637 554.645 219.156C552.364 220.674 534.501 209.664 523.099 219.535C511.697 229.407 542.102 268.515 550.844 268.895C559.585 269.275 593.031 259.023 592.651 248.012C592.271 237.001 574.028 225.61 575.548 202.829C577.069 180.048 556.545 202.07 556.545 202.07Z" fill="#FFC1B7"></path><path d="M556.127 214.182C562.905 214.131 569.518 213.055 575.624 210.157C575.421 207.816 575.371 205.373 575.535 202.816C577.056 180.035 556.532 202.057 556.532 202.057C556.532 202.057 556.71 209.119 556.127 214.182Z" fill="#FFA398"></path><path d="M571.646 142.75C571.646 142.75 552.833 141.332 545.042 161.089C536.971 181.579 537.352 203.652 557.102 207.018C576.866 210.385 595.388 192.805 596.528 177.833C597.681 162.861 594.83 144.623 571.646 142.75Z" fill="#FFC1B7"></path><path d="M565.185 144.18C565.185 144.18 562.056 158.418 583.137 170.948C583.137 170.948 556.912 218.498 579.146 233.305C601.38 248.113 577.715 269.072 587.685 280.172C597.656 291.271 630.747 285.133 643.846 255.796C661.519 216.219 603.661 209.094 613.922 175.504C613.922 175.504 622.182 151.014 603.952 137.346C586.291 124.107 568.036 127.664 565.185 144.18Z" fill="#F77021"></path><path d="M647.166 256.315C647.166 256.315 647.381 255.631 647.799 254.365C648.268 253.112 648.724 251.189 649.218 248.771C649.598 246.329 649.902 243.304 649.471 239.899C649.003 236.507 647.774 232.799 645.569 229.217C643.378 225.623 640.35 222.168 636.866 218.776C633.382 215.371 629.429 212.043 625.527 208.309C623.576 206.449 621.638 204.474 619.839 202.31C618.014 200.171 616.355 197.792 615.063 195.159C613.783 192.54 612.795 189.667 612.541 186.68C612.402 185.946 612.453 185.186 612.415 184.44C612.402 183.693 612.364 182.946 612.478 182.199L612.693 179.972L613.15 177.795C614.619 172.34 615.164 166.759 614.594 161.317C614.024 155.9 612.275 150.698 609.235 146.521C607.727 144.433 605.928 142.611 603.99 141.054C603.496 140.687 602.989 140.257 602.533 139.953C602.001 139.598 601.469 139.257 600.949 138.902C600.417 138.561 599.898 138.219 599.378 137.877C598.846 137.586 598.327 137.308 597.795 137.017C593.614 134.726 589.218 133.22 585.075 132.751C580.933 132.283 577.031 132.878 573.977 134.346C570.899 135.802 568.821 138.08 567.504 140.143C567.199 140.674 566.908 141.18 566.629 141.661C566.376 142.142 566.224 142.649 566.034 143.092C565.857 143.535 565.692 143.952 565.54 144.332C565.4 144.724 565.35 145.091 565.261 145.408C564.944 146.711 564.78 147.407 564.78 147.407C564.78 147.407 564.906 146.699 565.134 145.382C565.198 145.053 565.236 144.674 565.35 144.281C565.476 143.889 565.616 143.459 565.768 142.99C565.933 142.535 566.047 142.016 566.287 141.497C566.541 140.991 566.819 140.459 567.111 139.902C568.352 137.725 570.405 135.232 573.572 133.536C576.714 131.815 580.831 130.992 585.215 131.359C589.611 131.701 594.21 133.106 598.682 135.422C599.239 135.713 599.809 136.004 600.379 136.295C600.911 136.624 601.443 136.953 601.976 137.282C602.508 137.611 603.052 137.953 603.585 138.282C604.193 138.675 604.674 139.054 605.219 139.447C607.335 141.054 609.286 143.003 610.958 145.23C614.29 149.685 616.329 155.28 616.925 161.026C617.558 166.759 616.988 172.745 615.506 178.301L615.075 180.314L614.86 182.339C614.758 183.009 614.784 183.693 614.796 184.364C614.822 185.034 614.771 185.718 614.898 186.389C615.113 189.084 615.987 191.666 617.153 194.096C618.331 196.514 619.851 198.766 621.562 200.855C623.259 202.943 625.109 204.905 626.997 206.765C630.785 210.486 634.661 213.954 638.12 217.485C641.591 221.004 644.606 224.699 646.747 228.509C648.939 232.306 650.029 236.267 650.345 239.785C650.624 243.329 650.168 246.392 649.661 248.847C649.053 251.29 648.432 253.163 647.9 254.391C647.432 255.644 647.166 256.315 647.166 256.315Z" fill="#F77021"></path><path d="M588.559 175.504L583.15 189.743C583.15 189.743 589.243 194.97 594.552 185.756C599.961 176.352 594.26 171.226 588.559 175.504Z" fill="#FFC1B7"></path><path d="M589.978 190.59C589.978 192.008 588.825 193.147 587.419 193.147C586 193.147 584.86 191.995 584.86 190.59C584.86 189.173 586.013 188.034 587.419 188.034C588.838 188.021 589.978 189.173 589.978 190.59Z" fill="white"></path><path d="M559.585 167.531C558.496 169.784 557.153 171.872 555.747 173.897C555.405 174.416 555.025 174.897 554.67 175.39C554.302 175.884 553.948 176.39 553.555 176.858C552.808 177.833 552.022 178.782 551.224 179.731L551.034 178.681C552.605 179.807 554.163 180.972 555.595 182.326C553.732 181.655 551.997 180.795 550.274 179.896L549.602 179.554L550.071 178.858C550.768 177.833 551.465 176.82 552.199 175.846C552.554 175.34 552.934 174.859 553.314 174.378C553.694 173.897 554.062 173.403 554.467 172.935C556.051 171.037 557.698 169.189 559.585 167.531Z" fill="#DD9B94"></path><path d="M547.005 162.785C547.005 162.785 546.917 163.101 546.79 163.671C546.663 164.227 546.486 165.025 546.397 165.961C546.359 166.43 546.346 166.923 546.359 167.442C546.41 167.948 546.486 168.467 546.676 168.923C546.828 169.417 547.17 169.771 547.525 170.125C547.702 170.302 547.955 170.404 548.158 170.556C548.399 170.67 548.665 170.758 548.918 170.859C548.918 170.859 549.045 170.91 548.956 170.885L549.07 170.91L549.311 170.973L549.792 171.087C550.109 171.163 550.324 171.125 550.59 171.163C550.844 171.176 551.123 171.125 551.389 171.125C551.655 171.087 551.908 171.024 552.161 170.961C552.656 170.783 553.137 170.581 553.568 170.302C553.998 170.024 554.391 169.72 554.733 169.404C555.417 168.771 555.937 168.151 556.279 167.695C556.634 167.24 556.811 166.961 556.811 166.961C556.811 166.961 556.76 167.29 556.583 167.847C556.494 168.126 556.368 168.467 556.177 168.834C556 169.214 555.785 169.632 555.468 170.037C554.885 170.885 553.973 171.809 552.681 172.365C552.351 172.479 552.009 172.593 551.655 172.682C551.3 172.732 550.945 172.808 550.552 172.796C550.185 172.77 549.729 172.77 549.412 172.707L548.931 172.606L548.69 172.555L548.576 172.53C548.411 172.479 548.449 172.492 548.386 172.467C548.044 172.315 547.689 172.188 547.347 172.011C547.031 171.783 546.688 171.606 546.41 171.315C546.144 171.024 545.852 170.758 545.688 170.404L545.422 169.897L545.257 169.379C545.029 168.682 545.054 167.999 545.092 167.392C545.156 166.784 545.282 166.227 545.447 165.734C545.764 164.746 546.182 164.012 546.486 163.519C546.79 163.038 547.005 162.785 547.005 162.785Z" fill="#2F3F5C"></path><path d="M566.389 170.758C566.389 170.758 566.3 171.074 566.173 171.644C566.047 172.201 565.869 172.998 565.781 173.935C565.743 174.403 565.73 174.897 565.743 175.416C565.793 175.922 565.869 176.441 566.059 176.896C566.211 177.39 566.553 177.744 566.908 178.099C567.085 178.276 567.339 178.377 567.542 178.529C567.782 178.643 568.048 178.731 568.302 178.833C568.302 178.833 568.428 178.883 568.34 178.858L568.454 178.883L568.694 178.947L569.176 179.061C569.492 179.136 569.708 179.099 569.974 179.136C570.227 179.149 570.506 179.099 570.772 179.099C571.038 179.061 571.291 178.997 571.545 178.934C572.039 178.757 572.52 178.554 572.951 178.276C573.382 177.997 573.775 177.694 574.117 177.377C574.801 176.744 575.32 176.124 575.662 175.669C576.017 175.213 576.194 174.935 576.194 174.935C576.194 174.935 576.144 175.264 575.966 175.821C575.878 176.099 575.751 176.441 575.561 176.808C575.384 177.187 575.168 177.605 574.851 178.01C574.256 178.858 573.356 179.782 572.064 180.339C571.735 180.453 571.393 180.567 571.038 180.655C570.683 180.706 570.329 180.782 569.936 180.769C569.569 180.744 569.112 180.744 568.796 180.681L568.314 180.579L568.074 180.529L567.96 180.503C567.795 180.453 567.833 180.465 567.77 180.44C567.427 180.288 567.073 180.162 566.731 179.984C566.414 179.757 566.072 179.579 565.793 179.288C565.527 178.997 565.236 178.731 565.071 178.377L564.805 177.871L564.64 177.352C564.412 176.656 564.438 175.972 564.476 175.365C564.539 174.757 564.666 174.201 564.83 173.707C565.147 172.72 565.565 171.986 565.869 171.492C566.161 171.011 566.389 170.758 566.389 170.758Z" fill="#2F3F5C"></path><path d="M549.324 188.781C549.324 188.781 550.198 189.186 551.477 189.641C552.123 189.869 552.858 190.097 553.656 190.299C554.049 190.413 554.467 190.489 554.898 190.565C555.316 190.666 555.759 190.704 556.177 190.78C556.608 190.843 557.052 190.856 557.47 190.919C557.9 190.945 558.331 190.97 558.737 190.995C559.155 190.983 559.547 190.995 559.94 190.995C560.32 191.008 560.688 190.957 561.03 190.957C561.714 190.957 562.297 190.894 562.702 190.881C563.12 190.869 563.361 190.869 563.361 190.869C563.361 190.869 563.158 190.995 562.791 191.198C562.423 191.388 561.891 191.704 561.207 191.907C560.865 192.021 560.498 192.172 560.092 192.248C559.687 192.324 559.256 192.426 558.8 192.476C558.344 192.501 557.875 192.552 557.394 192.565C556.912 192.539 556.418 192.527 555.937 192.463C555.455 192.375 554.961 192.324 554.505 192.172C554.036 192.058 553.593 191.894 553.162 191.717C552.732 191.565 552.351 191.337 551.971 191.147C551.604 190.932 551.275 190.73 550.983 190.502C549.83 189.641 549.324 188.781 549.324 188.781Z" fill="#DD9B94"></path><path d="M567.377 163.354C567.377 163.354 567.618 163.152 568.099 162.937C568.58 162.709 569.29 162.456 570.189 162.304C571.089 162.152 572.153 162.152 573.293 162.329C573.851 162.443 574.446 162.557 575.016 162.785C575.599 162.975 576.156 163.266 576.701 163.557C577.258 163.835 577.727 164.253 578.221 164.62C578.69 165 579.083 165.468 579.476 165.886C579.843 166.328 580.134 166.809 580.413 167.24C580.704 167.67 580.856 168.151 581.034 168.569C581.389 169.391 581.477 170.163 581.553 170.67C581.617 171.188 581.617 171.492 581.617 171.492C581.617 171.492 581.351 171.315 580.958 170.986C580.768 170.821 580.514 170.632 580.274 170.404C580.046 170.163 579.704 169.948 579.4 169.695C579.083 169.455 578.804 169.138 578.424 168.885C578.082 168.619 577.727 168.341 577.347 168.05C576.954 167.797 576.587 167.506 576.194 167.24C575.776 167.025 575.422 166.696 574.978 166.493C574.167 165.999 573.293 165.594 572.457 165.202C571.608 164.848 570.772 164.493 570.025 164.24C569.277 163.949 568.618 163.747 568.137 163.582C567.656 163.443 567.377 163.354 567.377 163.354Z" fill="#D7611C"></path><path d="M548.526 155.431C548.526 155.431 548.69 155.204 549.083 154.925C549.463 154.647 550.058 154.292 550.844 154.077C551.629 153.849 552.605 153.723 553.631 153.875C554.67 153.976 555.734 154.381 556.697 154.925C557.14 155.242 557.634 155.52 558.015 155.9C558.395 156.267 558.787 156.621 559.079 157.026C559.37 157.431 559.649 157.823 559.877 158.216C560.08 158.621 560.244 159.013 560.384 159.38C560.536 159.734 560.624 160.089 560.675 160.405C560.751 160.709 560.776 161 560.814 161.228C560.865 161.684 560.865 161.962 560.865 161.962C560.865 161.962 560.612 161.835 560.232 161.582C559.839 161.354 559.383 160.937 558.787 160.557C558.496 160.355 558.205 160.127 557.913 159.886C557.596 159.671 557.267 159.456 556.963 159.203C556.659 158.95 556.292 158.773 555.975 158.519C555.645 158.279 555.291 158.102 554.974 157.874C554.632 157.684 554.29 157.494 553.948 157.304C553.593 157.153 553.264 156.95 552.909 156.824C552.567 156.659 552.225 156.545 551.883 156.406C551.541 156.292 551.211 156.165 550.895 156.064C550.261 155.849 549.678 155.722 549.248 155.609C548.779 155.482 548.526 155.431 548.526 155.431Z" fill="#D7611C"></path><path d="M507.326 240.988L489.653 260.352L424.674 236.432L422.394 250.67C422.394 250.67 485.092 284.842 491.363 284.842C497.635 284.842 527.85 252.379 527.85 252.379L507.326 240.988Z" fill="#FFC1B7"></path><path d="M453.179 246.924L424.674 236.432L422.394 250.67C422.394 250.67 446.452 263.782 466.254 273.755C462.149 264.68 457.981 255.644 453.179 246.924Z" fill="#FFA398"></path><path d="M522.909 257.58C525.912 254.467 527.85 252.378 527.85 252.378L507.326 240.988L503.158 245.557C509.746 249.556 515.865 254.391 522.909 257.58Z" fill="#FFA398"></path><path d="M433.061 241.709C433.061 241.709 432.82 212.979 429.197 237.368C425.574 261.744 433.061 241.709 433.061 241.709Z" fill="#FFA398"></path><path d="M517.917 251.834L503.044 241.089C503.044 241.089 519.058 216.637 531.828 215.739C531.841 215.739 519.07 241.089 517.917 251.834Z" fill="#14C3BF"></path><path d="M531.841 215.739C531.841 215.739 526.9 233.964 548.944 242.696C570.987 251.429 580.489 230.167 587.71 242.317C594.932 254.467 577.449 294.334 577.449 294.334C577.449 294.334 547.043 296.612 524.239 285.981C524.239 285.981 523.099 277.248 522.719 269.274C522.719 269.274 501.055 259.213 522.719 233.584L523.099 219.535C523.099 219.535 525.76 215.739 531.841 215.739Z" fill="#14C3BF"></path><path opacity="0.2" d="M567.694 278.501C557.242 277.197 546.739 275.679 536.427 273.54C531.917 272.603 527.039 271.477 522.732 269.414C523.112 277.349 524.239 285.981 524.239 285.981C547.043 296.612 577.449 294.334 577.449 294.334C577.449 294.334 580.147 288.158 582.998 279.944C577.879 279.602 572.786 279.134 567.694 278.501Z" fill="#2F3F5C"></path><path d="M293.133 464.738L262.17 472.914L246.398 329.923H303.648L306.575 340.428H376.672L383.69 460.067L293.133 464.738Z" fill="#CC5E44"></path><path d="M267.428 467.661L263.919 345.68L421.659 345.098L388.948 464.155L267.428 467.661Z" fill="white"></path><path opacity="0.3" d="M267.428 467.661L263.919 345.68L421.659 345.098L388.948 464.155L267.428 467.661Z" fill="#7A8DB5"></path><path d="M278.526 464.738L275.017 349.173L432.77 348.591L400.046 467.661L278.526 464.738Z" fill="white"></path><path opacity="0.1" d="M278.526 464.738L275.017 349.173L432.77 348.591L400.046 467.661L278.526 464.738Z" fill="#7A8DB5"></path><path d="M333.091 403.456L329.581 287.892L487.335 287.31L482.077 406.949L333.091 403.456Z" fill="white"></path><path opacity="0.1" d="M331.38 354.843L333.091 403.456L482.077 406.949L485.447 330.189L331.38 354.843Z" fill="#7A8DB5"></path><path d="M277.892 319.419L274.383 203.854L432.124 203.272L426.866 322.912L277.892 319.419Z" fill="white"></path><path opacity="0.1" d="M277.234 297.915L277.892 319.418L426.866 322.912L431.946 207.297L277.234 297.915Z" fill="#7A8DB5"></path><path d="M262.17 472.914H417.58L463.733 347.427H412.322L407.647 356.185H301.9L262.17 472.914Z" fill="#F77021"></path><path d="M553.796 260.795L524.265 292.929C524.265 292.929 485.65 297.131 476.908 298.131C476.135 298.219 475.489 298.295 474.919 298.371C464.898 290.6 469.142 296.283 471.435 299.093C442.803 305.598 467.052 302.877 467.052 302.877C441.334 311.939 468.686 305.408 468.686 305.408C448.644 320.14 470.574 307.673 470.574 307.673C455.688 322.329 473.602 308.813 473.602 308.813C473.602 308.813 525.785 314.103 536.363 309.572C546.955 305.041 568.884 281.614 568.884 281.614C560.194 276.299 553.796 260.795 553.796 260.795Z" fill="#FFC1B7"></path><path d="M565.895 284.715C567.757 282.804 568.897 281.589 568.897 281.589C560.206 276.299 553.808 260.795 553.808 260.795L545.32 270.034C552.085 275.058 558.901 280.007 565.895 284.715Z" fill="#FFA398"></path><path d="M546.524 265.541L569.619 282.234C569.619 282.234 577.398 274.236 582.884 266.009C588.369 257.783 560.004 248.873 560.004 248.873L546.524 265.541Z" fill="#14C3BF"></path><path opacity="0.1" d="M90.9121 488.987C141.121 488.987 181.824 483.485 181.824 476.698C181.824 469.911 141.121 464.409 90.9121 464.409C40.7027 464.409 0 469.911 0 476.698C0 483.485 40.7027 488.987 90.9121 488.987Z" fill="#2F3F5C"></path><path d="M50.4856 70.7107L46.9763 96.289L29.0118 97.947C29.0118 97.947 49.8648 113.413 67.8293 116.096C85.7938 118.779 93.4332 105.579 93.4332 105.579L72.1494 100.668L75.456 76.1149L50.4856 70.7107Z" fill="#F77021"></path><path d="M50.4856 70.7107L46.9763 96.289L29.0118 97.947C29.0118 97.947 49.8648 113.413 67.8293 116.096C85.7938 118.779 93.4332 105.579 93.4332 105.579L72.1494 100.668L75.456 76.1149L50.4856 70.7107Z" fill="#D9A69D"></path><path d="M45.8995 40.9683C45.8995 40.9683 41.7441 31.4888 35.2323 40.3735C28.7078 49.2582 39.9704 61.3069 45.5067 64.066C51.0431 66.8251 45.8995 40.9683 45.8995 40.9683Z" fill="#ECB7AE"></path><path d="M109.991 32.1091C109.991 32.1091 105.899 82.3292 90.3673 91.3151C74.8353 100.301 42.935 92.5681 45 54.1563C47.4578 8.4166 71.1613 3.93628 80.5616 3.93628C89.9619 3.93628 111.22 16.1749 109.991 32.1091Z" fill="#ECB7AE"></path><path d="M73.9738 18.2631C73.9738 18.2631 75.7474 34.6529 97.2972 41.3607L90.9754 33.4632C90.9754 33.4632 102.238 42.3479 111.93 45.512L110.346 37.817L113.906 42.9554C113.906 42.9554 115.49 36.64 113.703 28.9323L119.43 39.7914C119.43 39.7914 122.597 15.3142 97.4873 4.25259C72.3775 -6.80898 63.1039 7.21415 63.1039 7.21415L68.4375 6.61931C68.4375 6.61931 56.5794 -4.44226 46.6976 9.58087C40.9459 17.7442 39.9831 28.4134 41.5541 36.4375C45.5067 39.1965 45.8995 46.9042 45.8995 46.9042L45.5067 58.3581L51.0431 59.5478L52.6267 38.4245C52.6267 38.4245 64.8775 31.1218 64.4848 18.0859C64.4848 18.0859 65.0802 33.0962 88.201 41.7784L73.9738 18.2631Z" fill="#2F3F5C"></path><path d="M61.8495 53.6246C61.8495 53.6246 61.8495 53.2069 61.9129 52.4982C61.9762 51.7768 62.1283 50.7516 62.4577 49.5493C62.6224 48.9418 62.8251 48.2963 63.1291 47.6255C63.4205 46.9548 63.7752 46.2587 64.282 45.5879C64.51 45.2462 64.8394 44.9424 65.1308 44.6133C65.4982 44.3349 65.8276 44.0058 66.271 43.816L66.9424 43.5249C67.1705 43.4363 67.4239 43.4237 67.6646 43.3604C68.1587 43.2338 68.6528 43.3224 69.1468 43.3477L69.3369 43.373H69.3875L69.5016 43.3983H69.5142L69.5902 43.4237L69.8816 43.5249L70.4517 43.7148C70.8825 43.9805 71.4146 44.221 71.7313 44.5501L72.238 45.0437C72.3901 45.2208 72.5041 45.4107 72.6308 45.6005C72.9095 45.9676 73.0742 46.3599 73.2516 46.7523C73.5936 47.5243 73.7456 48.2963 73.8723 49.0304C73.9737 49.7518 73.999 50.4479 73.999 51.068C73.9864 52.321 73.809 53.3462 73.657 54.0549C73.5049 54.7637 73.3782 55.156 73.3782 55.156C73.3782 55.156 73.3656 54.7384 73.3149 54.0423C73.2642 53.3335 73.1755 52.3337 72.9855 51.1566C72.8842 50.5744 72.7448 49.9543 72.5801 49.3088C72.3901 48.676 72.162 48.0305 71.8453 47.4357C71.5286 46.8408 71.1232 46.284 70.6291 45.879C70.3884 45.6385 70.135 45.5879 69.9196 45.398L69.3369 45.2208L69.0455 45.1323L68.9695 45.1069H68.9568H68.9441C69.1342 45.1576 68.9948 45.1196 69.0328 45.1323H69.0075L68.8935 45.1196C68.5767 45.1069 68.26 45.0057 67.956 45.1069C67.8039 45.1449 67.6519 45.1323 67.4999 45.1829L67.0691 45.3601C66.7777 45.474 66.5244 45.7018 66.2457 45.8663C66.0049 46.1068 65.7262 46.3093 65.5235 46.5751C65.0801 47.094 64.662 47.6508 64.3327 48.233C63.9906 48.8026 63.6865 49.3721 63.4332 49.9037C62.9137 50.9794 62.5337 51.916 62.2803 52.5741C62.0016 53.2449 61.8495 53.6246 61.8495 53.6246Z" fill="#2F3F5C"></path><path d="M89.3284 59.358C89.3284 59.358 89.3284 58.9403 89.3918 58.2316C89.4551 57.5102 89.6071 56.485 89.9365 55.2827C90.1012 54.6752 90.3039 54.0297 90.608 53.3589C90.8994 52.6881 91.2541 51.9921 91.7609 51.3213C91.9889 50.9796 92.3183 50.6758 92.6097 50.3467C92.9771 50.0683 93.3065 49.7392 93.7499 49.5494L94.4213 49.2583C94.6494 49.1697 94.9027 49.1571 95.1435 49.0938C95.6375 48.9672 96.1316 49.0558 96.6257 49.0811L96.8157 49.1064H96.8664L96.9805 49.1317H96.9931L97.0691 49.1571L97.3605 49.2583L97.9306 49.4481C98.3614 49.7139 98.8934 49.9544 99.2102 50.2835L99.7169 50.7771C99.869 50.9542 99.983 51.1441 100.11 51.3339C100.388 51.701 100.553 52.0933 100.73 52.4857C101.073 53.2577 101.225 54.0297 101.351 54.7638C101.453 55.4852 101.478 56.1813 101.478 56.8014C101.465 58.0544 101.288 59.0796 101.136 59.7883C100.984 60.4971 100.857 60.8894 100.857 60.8894C100.857 60.8894 100.844 60.4717 100.794 59.7757C100.743 59.0669 100.654 58.0671 100.464 56.89C100.363 56.3078 100.224 55.6877 100.059 55.0422C99.869 54.4094 99.6409 53.7639 99.3242 53.1691C99.0075 52.5742 98.6021 52.0174 98.108 51.6124C97.8673 51.3719 97.6139 51.3213 97.3985 51.1314L96.8157 50.9542L96.5244 50.8656L96.4483 50.8403H96.4357H96.423C96.613 50.891 96.4737 50.853 96.5117 50.8656H96.4864L96.3723 50.853C96.0556 50.8403 95.7389 50.7391 95.4348 50.8403C95.2828 50.8783 95.1308 50.8656 94.9788 50.9163L94.548 51.0935C94.2566 51.2074 94.0033 51.4352 93.7245 51.5997C93.4838 51.8402 93.2051 52.0427 93.0024 52.3085C92.559 52.8274 92.1409 53.3842 91.8115 53.9664C91.4695 54.536 91.1654 55.1055 90.912 55.6371C90.3926 56.7128 90.0125 57.6494 89.7592 58.3075C89.4678 58.9783 89.3284 59.358 89.3284 59.358Z" fill="#2F3F5C"></path><path d="M87.9981 47.8789C88.5049 49.828 88.8343 51.7897 89.151 53.7514C89.2777 54.7386 89.4424 55.7131 89.5438 56.7003C89.6451 57.6875 89.7718 58.662 89.8478 59.6492C90.0252 61.6236 90.1392 63.598 90.2406 65.5724C90.3039 67.5467 90.3419 69.5338 90.3039 71.5208L90.2912 72.1536L89.8098 72.2422C88.2515 72.546 86.6679 72.8117 85.059 72.951C86.4779 72.1663 87.9348 71.5081 89.4044 70.888L88.8976 71.6094C88.5936 69.6477 88.3655 67.6733 88.1628 65.7116C87.9855 63.7372 87.8461 61.7628 87.7574 59.7884C87.6941 58.8013 87.6941 57.8141 87.6688 56.8142C87.6434 55.827 87.6688 54.8272 87.6561 53.84C87.6941 51.8656 87.7574 49.8786 87.9981 47.8789Z" fill="#D9A69D"></path><path d="M63.1038 71.584L91.7608 77.5071C91.7608 77.5071 75.95 85.9868 63.1038 71.584Z" fill="white"></path><path d="M59.4551 39.9433C59.4551 39.9433 59.6452 39.6269 60.0759 39.1586C60.494 38.6777 61.1528 38.0702 62.0269 37.4374C62.9137 36.8425 64.0159 36.1844 65.3335 35.7541C65.9796 35.501 66.6764 35.3491 67.3985 35.2099C68.1207 35.0706 68.8808 35.0453 69.6409 35.02C70.4137 35.096 71.1739 35.0706 71.9213 35.2985C72.6688 35.463 73.3909 35.6781 74.037 36.0325C74.3664 36.1971 74.6958 36.3363 74.9872 36.5135C75.2659 36.716 75.532 36.9311 75.798 37.121C76.0514 37.3235 76.2921 37.526 76.5328 37.7158C76.7355 37.9436 76.9256 38.1714 77.1156 38.3866C77.4703 38.8296 77.787 39.2092 78.0024 39.6016C78.2178 39.9939 78.3698 40.361 78.4965 40.6521C78.7499 41.2342 78.8386 41.576 78.8386 41.576C78.8386 41.576 78.4838 41.4114 77.9517 41.1077C77.6857 40.9558 77.369 40.7786 77.0396 40.5635C76.6975 40.361 76.2541 40.2091 75.836 39.9939C75.6333 39.8927 75.418 39.7788 75.1899 39.6775C74.9492 39.6016 74.7085 39.513 74.4678 39.4371C74.2271 39.3485 73.9864 39.2599 73.733 39.1586C73.4796 39.0953 73.2136 39.0447 72.9475 38.9814C72.6815 38.9308 72.4281 38.8296 72.1494 38.7916C71.8707 38.7663 71.592 38.7283 71.3132 38.6903C70.7685 38.5764 70.173 38.6271 69.6029 38.5638C69.0202 38.5638 68.4247 38.5764 67.842 38.6144C67.2465 38.6777 66.6637 38.703 66.081 38.7916C65.4982 38.8549 64.9408 38.9561 64.396 39.0321C63.8513 39.108 63.3318 39.2219 62.8377 39.2978C60.8107 39.7028 59.4551 39.9433 59.4551 39.9433Z" fill="#2F3F5C"></path><path d="M90.5699 45.3222C90.5699 45.3222 90.7346 45.0185 91.102 44.5755C91.4694 44.1199 92.0522 43.5377 92.8504 42.9555C93.2558 42.677 93.6992 42.348 94.2186 42.0949C94.7254 41.8291 95.2828 41.5759 95.9036 41.3861C96.499 41.1583 97.1704 41.0444 97.8546 40.9305C98.5387 40.8672 99.2608 40.8292 99.9829 40.9052C100.705 41.0064 101.427 41.095 102.099 41.3861C102.795 41.5886 103.404 41.9556 103.974 42.348C104.569 42.677 104.987 43.1959 105.418 43.6136C105.861 44.0313 106.127 44.5375 106.381 44.9805C106.634 45.4235 106.888 45.8031 106.976 46.2208C107.103 46.6131 107.192 46.9549 107.255 47.2333C107.394 47.8028 107.42 48.1192 107.42 48.1192C107.42 48.1192 107.116 47.9294 106.672 47.6003C106.444 47.4358 106.178 47.2333 105.899 46.9928C105.633 46.7397 105.228 46.5752 104.898 46.3094C104.531 46.0816 104.176 45.8031 103.746 45.626C103.328 45.4361 102.947 45.145 102.466 45.0311C102.238 44.9552 102.023 44.8666 101.795 44.778C101.567 44.6894 101.326 44.6767 101.085 44.6008C100.629 44.4489 100.122 44.411 99.6282 44.3477C99.1341 44.2717 98.6147 44.297 98.108 44.2717C97.5885 44.3097 97.0691 44.2844 96.5623 44.3603C96.0429 44.3983 95.5488 44.4742 95.0547 44.5375C94.5607 44.6008 94.0919 44.6894 93.6485 44.74C93.2177 44.8413 92.787 44.8792 92.4323 44.9552C92.0522 45.0185 91.7228 45.0817 91.4568 45.1324C90.8993 45.2589 90.5699 45.3222 90.5699 45.3222Z" fill="#2F3F5C"></path><path d="M64.9661 429.376C64.9661 429.376 67.1325 469.889 64.0413 473.597C60.9501 477.306 -9.93242 495.556 49.4974 464.624L43.619 412.366L62.1917 434.629" fill="#ECB7AE"></path><path d="M25.9079 480.343C24.1216 486.545 61.7989 476.268 64.0413 473.585C64.3454 473.218 64.5988 472.471 64.8141 471.458C59.2651 474.483 34.0414 481.381 25.9079 480.343Z" fill="#2F3F5C"></path><path d="M33.0912 473.053L36.8032 470.889L45.6968 477.926L40.2745 480.242C40.2745 480.242 36.6385 473.205 29.9113 480.546L33.0912 473.053Z" fill="#2F3F5C"></path><path opacity="0.2" d="M65.6882 457.954C65.8149 445.184 64.9661 429.376 64.9661 429.376L62.1789 434.629L43.6063 412.366L48.8006 458.524C54.4382 458.309 60.0632 458.119 65.6882 457.954Z" fill="#182333"></path><path d="M103.594 429.377C103.594 429.377 101.427 469.89 104.518 473.598C107.61 477.306 180.05 494.835 120.621 463.916L119.164 401.255L106.381 434.642" fill="#ECB7AE"></path><path d="M142.652 480.343C144.438 486.545 106.761 476.268 104.518 473.585C104.214 473.218 103.961 472.471 103.746 471.459C109.307 474.484 134.518 481.381 142.652 480.343Z" fill="#2F3F5C"></path><path d="M136.964 472.37L133.252 470.206L122.863 477.926L128.285 480.242C128.285 480.242 131.921 473.205 138.648 480.546L136.964 472.37Z" fill="#2F3F5C"></path><path opacity="0.2" d="M120.481 457.587L119.164 401.242L106.381 434.629L103.594 429.377C103.594 429.377 102.504 449.677 102.973 462.852C108.889 461.321 114.755 459.663 120.481 457.587Z" fill="#182333"></path><path d="M20.9544 251.012L45.7348 452.765L67.5886 452.601L63.0278 271.515L73.2896 272.084L101.795 450.323L124.409 448.424L111.106 232.597L20.9544 251.012Z" fill="#14C3BF"></path><path opacity="0.2" d="M109.751 249.632L108.306 229.977L20.9544 251.024L22.31 262.035C51.5371 258.441 80.7896 255.011 109.751 249.632Z" fill="#182333"></path><path d="M40.7812 444.108L68.8301 443.45L69.8817 453.702L44.3918 456.056L40.7812 444.108Z" fill="#C1EEE6"></path><path d="M125.346 441.855L99.1976 445.868L100.401 456.094L125.878 453.702L125.346 441.855Z" fill="#C1EEE6"></path><path d="M118.746 137.599L141.626 166.873C141.626 166.873 196.064 131.03 199.51 131.448C202.956 131.878 148.581 201.133 139.345 203.614C130.11 206.095 88.4418 149.66 88.4418 149.66L118.746 137.599Z" fill="#ECB7AE"></path><path d="M125.802 146.623L118.746 137.599L88.4289 149.66C88.4289 149.66 93.6485 156.735 100.806 165.759C109.168 159.418 118.34 154.052 125.802 146.623Z" fill="#D9A69D"></path><path d="M160.325 183.313C178.834 162.051 201.778 131.739 199.51 131.461C197.103 131.157 169.662 148.661 153.446 159.165C155.942 167.164 158.437 175.15 160.325 183.313Z" fill="#D9A69D"></path><path d="M42.6435 96.2889C42.6435 96.2889 17.2423 93.8715 11.0472 110.831C4.85215 127.79 12.9096 222.889 18.4839 251.961C18.4839 251.961 72.3774 257.416 115.743 245.899C115.743 245.899 107.065 158.684 108.306 142.927C109.548 127.183 113.881 105.984 89.1004 102.946C89.1004 102.946 80.4222 118.083 63.0784 114.451C45.7347 110.831 42.6435 96.2889 42.6435 96.2889Z" fill="#7A8DB5"></path><path opacity="0.2" d="M9.42566 160.494C10.9839 194.134 15.1647 234.698 18.4839 251.961C18.4839 251.961 72.3774 257.416 115.743 245.899C115.743 245.899 111.955 207.816 109.751 177.428C75.2913 175.517 41.1613 170.86 9.42566 160.494Z" fill="#2F3F5C"></path><path d="M89.1003 102.959C89.1003 102.959 107.432 100.44 121.748 133.131C125.739 142.244 125.739 142.244 125.739 142.244L100.654 158.191L89.1003 102.959Z" fill="#7A8DB5"></path><path d="M181.537 147.27L140.782 209.774L152.724 217.545L193.48 155.041L181.537 147.27Z" fill="#4B6590"></path><path opacity="0.5" d="M181.537 147.27L140.782 209.774L152.724 217.545L193.48 155.041L181.537 147.27Z" fill="#2F3F5C"></path><path d="M221.997 169.923C259.815 169.923 290.473 139.296 290.473 101.516C290.473 63.7358 259.815 33.1089 221.997 33.1089C184.179 33.1089 153.522 63.7358 153.522 101.516C153.522 139.296 184.179 169.923 221.997 169.923Z" fill="#4B6590"></path><path d="M233.738 154.912C263.253 148.433 281.923 119.278 275.438 89.7927C268.952 60.3069 239.768 41.6558 210.253 48.1344C180.738 54.613 162.068 83.768 168.553 113.254C175.038 142.74 204.222 161.391 233.738 154.912Z" fill="#B1EBE9"></path><path d="M83.6147 281.311C80.8656 285.525 82.0564 291.17 86.2752 293.916L95.3461 299.827C99.5649 302.573 105.215 301.384 107.964 297.169L172.056 198.868C174.805 194.653 173.615 189.009 169.396 186.262L160.325 180.352C156.106 177.605 150.456 178.795 147.707 183.01L83.6147 281.311Z" fill="#FFC330"></path><path opacity="0.2" d="M160.325 180.352L164.151 182.832C159.932 180.086 154.282 181.276 151.533 185.49L87.4407 283.791C84.6916 288.006 85.8825 293.651 90.1012 296.397L86.2752 293.916C82.0564 291.17 80.8656 285.525 83.6147 281.311L147.707 183.01C150.456 178.795 156.106 177.605 160.325 180.352Z" fill="#2F3F5C"></path><path opacity="0.2" d="M270.456 76.1654L167.901 109.742C167.128 104.718 167.052 99.5795 167.711 94.4916L264.615 67.2554C266.883 70.0524 268.821 73.0393 270.456 76.1654Z" fill="white"></path><path opacity="0.2" d="M275.675 91.0364C276.245 93.9473 276.575 96.8962 276.676 99.8578L179.164 135.51C176.034 131.574 173.475 127.259 171.562 122.702L275.675 91.0364Z" fill="white"></path><path d="M19.1426 156.482L52.7786 147.939C52.7786 147.939 56.1992 175.847 60.76 198.628C68.1713 206.601 95.3081 250.253 98.3866 254.442C98.3866 254.442 126.892 254.442 102.947 257.859C102.947 257.859 136.013 285.766 100.667 262.415C100.667 262.415 137.724 293.74 98.3866 265.833C98.3866 265.833 130.312 294.309 95.5361 269.25C95.5361 269.25 115.49 293.74 92.6856 271.528C79.8774 259.049 49.1426 232.787 35.6756 210.601C25.173 193.262 24.8817 169.202 19.1426 156.482Z" fill="#ECB7AE"></path><path d="M54.0961 153.875C53.2727 150.179 52.7786 147.927 52.7786 147.927L19.1426 156.469C20.1688 158.735 21.1443 161.532 22.1198 164.683C32.6097 160.595 43.2009 156.786 54.0961 153.875Z" fill="#D9A69D"></path></svg>